G75*
G70*
%OFA0B0*%
%FSLAX24Y24*%
%IPPOS*%
%LPD*%
%AMOC8*
5,1,8,0,0,1.08239X$1,22.5*
%
%ADD10R,0.0354X0.0276*%
%ADD11R,0.0669X0.0276*%
%ADD12R,0.0276X0.0354*%
%ADD13R,0.0600X0.0300*%
%ADD14R,0.0500X0.0250*%
%ADD15R,0.0250X0.0500*%
%ADD16C,0.0640*%
%ADD17C,0.0120*%
%ADD18C,0.0436*%
D10*
X007105Y014302D03*
X007105Y014814D03*
D11*
X010355Y010031D03*
X010355Y009558D03*
X010355Y009086D03*
D12*
X008361Y011558D03*
X007849Y011558D03*
X005861Y015558D03*
X005349Y015558D03*
X005349Y016558D03*
X005861Y016558D03*
D13*
X009105Y012808D03*
X009105Y011308D03*
X011105Y011308D03*
X011105Y012808D03*
D14*
X017105Y012908D03*
X017105Y012558D03*
X017105Y012208D03*
D15*
X013305Y004058D03*
X012905Y004058D03*
D16*
X005105Y001558D03*
X006105Y001558D03*
X006105Y002558D03*
X005105Y002558D03*
X007105Y002558D03*
X007105Y001558D03*
X008105Y001558D03*
X008105Y002558D03*
X009105Y002558D03*
X009105Y001558D03*
X010105Y001558D03*
X010105Y002558D03*
X011105Y002558D03*
X011105Y001558D03*
X012105Y001558D03*
X012105Y002558D03*
X013105Y002558D03*
X013105Y001558D03*
X014105Y001558D03*
X014105Y002558D03*
X015105Y002558D03*
X018105Y005558D03*
X018105Y006558D03*
X019105Y006558D03*
X019105Y005558D03*
X019105Y007558D03*
X019105Y008558D03*
X019105Y009558D03*
X019105Y010558D03*
X019105Y011558D03*
X019105Y012558D03*
X019105Y013558D03*
X019105Y014558D03*
X019105Y015558D03*
X018105Y015558D03*
X018105Y014558D03*
X018105Y013558D03*
X018105Y012558D03*
X018105Y011558D03*
X018105Y010558D03*
X018105Y009558D03*
X018105Y008558D03*
X018105Y007558D03*
X018105Y016558D03*
X015605Y019558D03*
X015605Y020558D03*
X014605Y020558D03*
X013605Y020558D03*
X013605Y019558D03*
X014605Y019558D03*
X012605Y019558D03*
X011605Y019558D03*
X011605Y020558D03*
X012605Y020558D03*
X010605Y020558D03*
X009605Y020558D03*
X009605Y019558D03*
X010605Y019558D03*
X008605Y019558D03*
X007605Y019558D03*
X007605Y020558D03*
X008605Y020558D03*
X006605Y020558D03*
X005605Y020558D03*
X005605Y019558D03*
X006605Y019558D03*
X004605Y019558D03*
X002105Y016558D03*
X002105Y015558D03*
X002105Y014558D03*
X002105Y013558D03*
X002105Y012558D03*
X002105Y011558D03*
X002105Y010558D03*
X002105Y009558D03*
X002105Y008558D03*
X002105Y007558D03*
X002105Y006558D03*
X002105Y005558D03*
X001105Y006558D03*
X001105Y007558D03*
X001105Y008558D03*
X001105Y009558D03*
X001105Y010558D03*
X001105Y011558D03*
X001105Y012558D03*
X001105Y013558D03*
X001105Y014558D03*
X001105Y015558D03*
X001105Y016558D03*
D17*
X003605Y015808D02*
X003605Y018558D01*
X004605Y019558D01*
X005105Y020058D02*
X005605Y020558D01*
X005105Y020058D02*
X005105Y018058D01*
X005355Y018058D01*
X009105Y014308D01*
X009105Y012808D01*
X011105Y012808D01*
X011855Y013558D01*
X011855Y016058D01*
X013855Y018308D02*
X015355Y018308D01*
X015855Y017808D01*
X015855Y011808D01*
X017355Y010308D01*
X017355Y008058D01*
X014105Y004808D01*
X007355Y004808D01*
X007355Y003308D01*
X007105Y003058D01*
X006355Y003058D01*
X006105Y003308D01*
X006105Y014808D01*
X005855Y015058D01*
X005855Y015552D01*
X005861Y015558D01*
X006361Y015558D01*
X007105Y014814D01*
X007105Y014302D02*
X007105Y012302D01*
X007849Y011558D01*
X007849Y011314D01*
X006855Y010320D01*
X006855Y003558D01*
X007105Y002558D02*
X008605Y004058D01*
X012905Y004058D01*
X013305Y004058D02*
X013305Y003508D01*
X013105Y003308D01*
X009105Y003308D01*
X008605Y002808D01*
X008605Y002058D01*
X007605Y002058D01*
X007105Y001558D01*
X007605Y005058D02*
X007355Y005308D01*
X007355Y008808D01*
X008605Y010058D01*
X010327Y010058D01*
X010355Y010031D01*
X010355Y009558D02*
X011105Y009558D01*
X012355Y010808D01*
X012355Y011558D01*
X011105Y012808D01*
X011105Y011308D02*
X011105Y010808D01*
X008355Y010808D01*
X007849Y011314D01*
X008605Y009558D02*
X010355Y009558D01*
X010355Y009086D02*
X010327Y009058D01*
X009105Y009058D01*
X008855Y008808D01*
X008855Y006308D01*
X008355Y005808D02*
X008355Y005558D01*
X007855Y005058D01*
X007605Y005058D01*
X007855Y005558D02*
X007855Y008808D01*
X008605Y009558D01*
X012355Y010808D02*
X016105Y010808D01*
X016355Y010558D01*
X017105Y012208D02*
X017455Y012208D01*
X018105Y011558D01*
X017455Y012908D02*
X017105Y012908D01*
X017455Y012908D02*
X017605Y013058D01*
X018605Y013058D01*
X019105Y013558D01*
X005855Y015058D02*
X005355Y015058D01*
X004605Y015808D01*
X004605Y017308D01*
X004105Y017558D02*
X004605Y018058D01*
X005105Y018058D01*
X005105Y017308D01*
X005349Y017064D01*
X005349Y016558D01*
X005355Y015558D01*
X005349Y015558D01*
X005861Y015558D02*
X005861Y016558D01*
X004605Y015308D02*
X004105Y015808D01*
X004105Y017558D01*
X003605Y015808D02*
X004105Y015308D01*
X004105Y012058D01*
X004605Y011558D02*
X004605Y015308D01*
D18*
X004605Y017308D03*
X004105Y012058D03*
X004605Y011558D03*
X008855Y006308D03*
X008355Y005808D03*
X007855Y005558D03*
X007355Y004808D03*
X006855Y003558D03*
X016355Y010558D03*
X017355Y010308D03*
X011855Y016058D03*
X013855Y018308D03*
M02*
