G75*
G70*
%OFA0B0*%
%FSLAX24Y24*%
%IPPOS*%
%LPD*%
%AMOC8*
5,1,8,0,0,1.08239X$1,22.5*
%
%ADD10C,0.0100*%
%ADD11C,0.0080*%
D10*
X007197Y008302D02*
X007099Y008401D01*
X007099Y013519D01*
X007394Y013814D01*
X012512Y013814D01*
X012611Y013716D01*
X012611Y008401D01*
X012512Y008302D01*
X007197Y008302D01*
X007395Y013420D02*
X007397Y013439D01*
X007402Y013458D01*
X007412Y013474D01*
X007424Y013489D01*
X007439Y013501D01*
X007455Y013511D01*
X007474Y013516D01*
X007493Y013518D01*
X007512Y013516D01*
X007531Y013511D01*
X007547Y013501D01*
X007562Y013489D01*
X007574Y013474D01*
X007584Y013458D01*
X007589Y013439D01*
X007591Y013420D01*
X007589Y013401D01*
X007584Y013382D01*
X007574Y013366D01*
X007562Y013351D01*
X007547Y013339D01*
X007531Y013329D01*
X007512Y013324D01*
X007493Y013322D01*
X007474Y013324D01*
X007455Y013329D01*
X007439Y013339D01*
X007424Y013351D01*
X007412Y013366D01*
X007402Y013382D01*
X007397Y013401D01*
X007395Y013420D01*
D11*
X004605Y001308D02*
X004855Y001058D01*
X005355Y001058D01*
X005605Y001308D01*
X005855Y001058D01*
X006355Y001058D01*
X006605Y001308D01*
X006605Y001808D01*
X006355Y002058D01*
X005855Y002058D01*
X005605Y001808D01*
X005605Y001308D01*
X005605Y001808D01*
X005355Y002058D01*
X005605Y002308D01*
X005605Y002808D01*
X005355Y003058D01*
X004855Y003058D01*
X004605Y002808D01*
X004605Y002308D01*
X004855Y002058D01*
X005355Y002058D01*
X004855Y002058D01*
X004605Y001808D01*
X004605Y001308D01*
X005605Y002308D02*
X005855Y002058D01*
X006355Y002058D01*
X006605Y002308D01*
X006605Y002808D01*
X006355Y003058D01*
X005855Y003058D01*
X005605Y002808D01*
X005605Y002308D01*
X006605Y002308D02*
X006855Y002058D01*
X006605Y001808D01*
X006605Y001308D01*
X006855Y001058D01*
X007355Y001058D01*
X007605Y001308D01*
X007855Y001058D01*
X008355Y001058D01*
X008605Y001308D01*
X008855Y001058D01*
X009355Y001058D01*
X009605Y001308D01*
X009855Y001058D01*
X010355Y001058D01*
X010605Y001308D01*
X010855Y001058D01*
X011355Y001058D01*
X011605Y001308D01*
X011855Y001058D01*
X012355Y001058D01*
X012605Y001308D01*
X012855Y001058D01*
X013355Y001058D01*
X013605Y001308D01*
X013855Y001058D01*
X014355Y001058D01*
X014605Y001308D01*
X014605Y001808D01*
X014355Y002058D01*
X013855Y002058D01*
X013605Y001808D01*
X013605Y001308D01*
X013605Y001808D01*
X013355Y002058D01*
X012855Y002058D01*
X012605Y001808D01*
X012605Y001308D01*
X012605Y001808D01*
X012355Y002058D01*
X011855Y002058D01*
X011605Y001808D01*
X011605Y001308D01*
X011605Y001808D01*
X011355Y002058D01*
X010855Y002058D01*
X010605Y001808D01*
X010605Y001308D01*
X010605Y001808D01*
X010355Y002058D01*
X009855Y002058D01*
X009605Y001808D01*
X009605Y001308D01*
X009605Y001808D01*
X009355Y002058D01*
X008855Y002058D01*
X008605Y001808D01*
X008605Y001308D01*
X008605Y001808D01*
X008355Y002058D01*
X007855Y002058D01*
X007605Y001808D01*
X007605Y001308D01*
X007605Y001808D01*
X007355Y002058D01*
X006855Y002058D01*
X007355Y002058D01*
X007605Y002308D01*
X007855Y002058D01*
X008355Y002058D01*
X008605Y002308D01*
X008855Y002058D01*
X009355Y002058D01*
X009605Y002308D01*
X009855Y002058D01*
X010355Y002058D01*
X010605Y002308D01*
X010855Y002058D01*
X011355Y002058D01*
X011605Y002308D01*
X011855Y002058D01*
X012355Y002058D01*
X012605Y002308D01*
X012855Y002058D01*
X013355Y002058D01*
X013605Y002308D01*
X013855Y002058D01*
X014355Y002058D01*
X014605Y002308D01*
X014855Y002058D01*
X015355Y002058D01*
X015605Y002308D01*
X015605Y002808D01*
X015355Y003058D01*
X014855Y003058D01*
X014605Y002808D01*
X014605Y002308D01*
X014605Y002808D01*
X014355Y003058D01*
X013855Y003058D01*
X013605Y002808D01*
X013605Y002308D01*
X013605Y002808D01*
X013355Y003058D01*
X012855Y003058D01*
X012605Y002808D01*
X012605Y002308D01*
X012605Y002808D01*
X012355Y003058D01*
X011855Y003058D01*
X011605Y002808D01*
X011605Y002308D01*
X011605Y002808D01*
X011355Y003058D01*
X010855Y003058D01*
X010605Y002808D01*
X010605Y002308D01*
X010605Y002808D01*
X010355Y003058D01*
X009855Y003058D01*
X009605Y002808D01*
X009605Y002308D01*
X009605Y002808D01*
X009355Y003058D01*
X008855Y003058D01*
X008605Y002808D01*
X008605Y002308D01*
X008605Y002808D01*
X008355Y003058D01*
X007855Y003058D01*
X007605Y002808D01*
X007605Y002308D01*
X007605Y002808D01*
X007355Y003058D01*
X006855Y003058D01*
X006605Y002808D01*
X006605Y002308D01*
X002605Y005308D02*
X002605Y005808D01*
X002355Y006058D01*
X001855Y006058D01*
X001605Y005808D01*
X001605Y005308D01*
X001855Y005058D01*
X002355Y005058D01*
X002605Y005308D01*
X002355Y006058D02*
X001855Y006058D01*
X001605Y006308D01*
X001605Y006808D01*
X001855Y007058D01*
X002355Y007058D01*
X002605Y006808D01*
X002605Y006308D01*
X002355Y006058D01*
X001605Y006308D02*
X001605Y006808D01*
X001355Y007058D01*
X000855Y007058D01*
X000605Y006808D01*
X000605Y006308D01*
X000855Y006058D01*
X001355Y006058D01*
X001605Y006308D01*
X001855Y007058D02*
X002355Y007058D01*
X002605Y007308D01*
X002605Y007808D01*
X002355Y008058D01*
X001855Y008058D01*
X001605Y007808D01*
X001605Y007308D01*
X001355Y007058D01*
X000855Y007058D01*
X000605Y007308D01*
X000605Y007808D01*
X000855Y008058D01*
X001355Y008058D01*
X001605Y007808D01*
X001605Y007308D01*
X001855Y007058D01*
X001855Y008058D02*
X002355Y008058D01*
X002605Y008308D01*
X002605Y008808D01*
X002355Y009058D01*
X001855Y009058D01*
X001605Y008808D01*
X001605Y008308D01*
X001355Y008058D01*
X000855Y008058D01*
X000605Y008308D01*
X000605Y008808D01*
X000855Y009058D01*
X001355Y009058D01*
X001605Y008808D01*
X001605Y008308D01*
X001855Y008058D01*
X001855Y009058D02*
X002355Y009058D01*
X002605Y009308D01*
X002605Y009808D01*
X002355Y010058D01*
X001855Y010058D01*
X001605Y009808D01*
X001605Y009308D01*
X001355Y009058D01*
X000855Y009058D01*
X000605Y009308D01*
X000605Y009808D01*
X000855Y010058D01*
X001355Y010058D01*
X001605Y009808D01*
X001605Y009308D01*
X001855Y009058D01*
X001855Y010058D02*
X002355Y010058D01*
X002605Y010308D01*
X002605Y010808D01*
X002355Y011058D01*
X002605Y011308D01*
X002605Y011808D01*
X002355Y012058D01*
X002605Y012308D01*
X002605Y012808D01*
X002355Y013058D01*
X001855Y013058D01*
X001605Y012808D01*
X001605Y012308D01*
X001855Y012058D01*
X002355Y012058D01*
X001855Y012058D01*
X001605Y011808D01*
X001605Y011308D01*
X001855Y011058D01*
X002355Y011058D01*
X001855Y011058D01*
X001605Y010808D01*
X001605Y010308D01*
X001355Y010058D01*
X000855Y010058D01*
X000605Y010308D01*
X000605Y010808D01*
X000855Y011058D01*
X001355Y011058D01*
X001605Y010808D01*
X001605Y010308D01*
X001855Y010058D01*
X001355Y011058D02*
X000855Y011058D01*
X000605Y011308D01*
X000605Y011808D01*
X000855Y012058D01*
X001355Y012058D01*
X001605Y011808D01*
X001605Y011308D01*
X001355Y011058D01*
X001355Y012058D02*
X000855Y012058D01*
X000605Y012308D01*
X000605Y012808D01*
X000855Y013058D01*
X001355Y013058D01*
X001605Y013308D01*
X001605Y013808D01*
X001355Y014058D01*
X000855Y014058D01*
X000605Y013808D01*
X000605Y013308D01*
X000855Y013058D01*
X001355Y013058D01*
X001605Y012808D01*
X001605Y012308D01*
X001355Y012058D01*
X001855Y013058D02*
X002355Y013058D01*
X002605Y013308D01*
X002605Y013808D01*
X002355Y014058D01*
X001855Y014058D01*
X001605Y013808D01*
X001605Y013308D01*
X001855Y013058D01*
X001855Y014058D02*
X002355Y014058D01*
X002605Y014308D01*
X002605Y014808D01*
X002355Y015058D01*
X001855Y015058D01*
X001605Y014808D01*
X001605Y014308D01*
X001355Y014058D01*
X000855Y014058D01*
X000605Y014308D01*
X000605Y014808D01*
X000855Y015058D01*
X001355Y015058D01*
X001605Y014808D01*
X001605Y014308D01*
X001855Y014058D01*
X001855Y015058D02*
X002355Y015058D01*
X002605Y015308D01*
X002605Y015808D01*
X002355Y016058D01*
X001855Y016058D01*
X001605Y015808D01*
X001605Y015308D01*
X001355Y015058D01*
X000855Y015058D01*
X000605Y015308D01*
X000605Y015808D01*
X000855Y016058D01*
X001355Y016058D01*
X001605Y015808D01*
X001605Y015308D01*
X001855Y015058D01*
X001855Y016058D02*
X002355Y016058D01*
X002605Y016308D01*
X002605Y016808D01*
X002355Y017058D01*
X001855Y017058D01*
X001605Y016808D01*
X001605Y016308D01*
X001355Y016058D01*
X000855Y016058D01*
X000605Y016308D01*
X000605Y016808D01*
X000855Y017058D01*
X001355Y017058D01*
X001605Y016808D01*
X001605Y016308D01*
X001855Y016058D01*
X004355Y019058D02*
X004855Y019058D01*
X005105Y019308D01*
X005105Y019808D01*
X004855Y020058D01*
X004355Y020058D01*
X004105Y019808D01*
X004105Y019308D01*
X004355Y019058D01*
X005105Y019308D02*
X005355Y019058D01*
X005855Y019058D01*
X006105Y019308D01*
X006355Y019058D01*
X006855Y019058D01*
X007105Y019308D01*
X007355Y019058D01*
X007855Y019058D01*
X008105Y019308D01*
X008355Y019058D01*
X008855Y019058D01*
X009105Y019308D01*
X009355Y019058D01*
X009855Y019058D01*
X010105Y019308D01*
X010105Y019808D01*
X009855Y020058D01*
X009355Y020058D01*
X009105Y019808D01*
X009105Y019308D01*
X009105Y019808D01*
X008855Y020058D01*
X008355Y020058D01*
X008105Y019808D01*
X008105Y019308D01*
X008105Y019808D01*
X007855Y020058D01*
X008105Y020308D01*
X008355Y020058D01*
X008855Y020058D01*
X009105Y020308D01*
X009355Y020058D01*
X009855Y020058D01*
X010105Y020308D01*
X010105Y020808D01*
X009855Y021058D01*
X009355Y021058D01*
X009105Y020808D01*
X009105Y020308D01*
X009105Y020808D01*
X008855Y021058D01*
X008355Y021058D01*
X008105Y020808D01*
X008105Y020308D01*
X008105Y020808D01*
X007855Y021058D01*
X007355Y021058D01*
X007105Y020808D01*
X007105Y020308D01*
X007355Y020058D01*
X007855Y020058D01*
X007355Y020058D01*
X007105Y019808D01*
X007105Y019308D01*
X007105Y019808D01*
X006855Y020058D01*
X006355Y020058D01*
X006105Y019808D01*
X006105Y019308D01*
X006105Y019808D01*
X005855Y020058D01*
X006105Y020308D01*
X006105Y020808D01*
X005855Y021058D01*
X005355Y021058D01*
X005105Y020808D01*
X005105Y020308D01*
X005355Y020058D01*
X005855Y020058D01*
X005355Y020058D01*
X005105Y019808D01*
X005105Y019308D01*
X006105Y020308D02*
X006355Y020058D01*
X006855Y020058D01*
X007105Y020308D01*
X007105Y020808D01*
X006855Y021058D01*
X006355Y021058D01*
X006105Y020808D01*
X006105Y020308D01*
X010105Y020308D02*
X010355Y020058D01*
X010105Y019808D01*
X010105Y019308D01*
X010355Y019058D01*
X010855Y019058D01*
X011105Y019308D01*
X011355Y019058D01*
X011855Y019058D01*
X012105Y019308D01*
X012355Y019058D01*
X012855Y019058D01*
X013105Y019308D01*
X013355Y019058D01*
X013855Y019058D01*
X014105Y019308D01*
X014355Y019058D01*
X014855Y019058D01*
X015105Y019308D01*
X015355Y019058D01*
X015855Y019058D01*
X016105Y019308D01*
X016105Y019808D01*
X015855Y020058D01*
X015355Y020058D01*
X015105Y019808D01*
X015105Y019308D01*
X015105Y019808D01*
X014855Y020058D01*
X014355Y020058D01*
X014105Y019808D01*
X014105Y019308D01*
X014105Y019808D01*
X013855Y020058D01*
X013355Y020058D01*
X013105Y019808D01*
X013105Y019308D01*
X013105Y019808D01*
X012855Y020058D01*
X012355Y020058D01*
X012105Y019808D01*
X012105Y019308D01*
X012105Y019808D01*
X011855Y020058D01*
X011355Y020058D01*
X011105Y019808D01*
X011105Y019308D01*
X011105Y019808D01*
X010855Y020058D01*
X010355Y020058D01*
X010855Y020058D01*
X011105Y020308D01*
X011355Y020058D01*
X011855Y020058D01*
X012105Y020308D01*
X012355Y020058D01*
X012855Y020058D01*
X013105Y020308D01*
X013355Y020058D01*
X013855Y020058D01*
X014105Y020308D01*
X014105Y020808D01*
X013855Y021058D01*
X013355Y021058D01*
X013105Y020808D01*
X013105Y020308D01*
X013105Y020808D01*
X012855Y021058D01*
X012355Y021058D01*
X012105Y020808D01*
X012105Y020308D01*
X012105Y020808D01*
X011855Y021058D01*
X011355Y021058D01*
X011105Y020808D01*
X011105Y020308D01*
X011105Y020808D01*
X010855Y021058D01*
X010355Y021058D01*
X010105Y020808D01*
X010105Y020308D01*
X014105Y020308D02*
X014355Y020058D01*
X014855Y020058D01*
X015105Y020308D01*
X015355Y020058D01*
X015855Y020058D01*
X016105Y020308D01*
X016105Y020808D01*
X015855Y021058D01*
X015355Y021058D01*
X015105Y020808D01*
X015105Y020308D01*
X015105Y020808D01*
X014855Y021058D01*
X014355Y021058D01*
X014105Y020808D01*
X014105Y020308D01*
X017605Y016808D02*
X017605Y016308D01*
X017855Y016058D01*
X017605Y015808D01*
X017605Y015308D01*
X017855Y015058D01*
X017605Y014808D01*
X017605Y014308D01*
X017855Y014058D01*
X018355Y014058D01*
X018605Y014308D01*
X018605Y014808D01*
X018355Y015058D01*
X017855Y015058D01*
X018355Y015058D01*
X018605Y015308D01*
X018605Y015808D01*
X018355Y016058D01*
X017855Y016058D01*
X018355Y016058D01*
X018605Y016308D01*
X018605Y016808D01*
X018355Y017058D01*
X017855Y017058D01*
X017605Y016808D01*
X018605Y015808D02*
X018605Y015308D01*
X018855Y015058D01*
X018605Y014808D01*
X018605Y014308D01*
X018855Y014058D01*
X019355Y014058D01*
X019605Y014308D01*
X019605Y014808D01*
X019355Y015058D01*
X018855Y015058D01*
X019355Y015058D01*
X019605Y015308D01*
X019605Y015808D01*
X019355Y016058D01*
X018855Y016058D01*
X018605Y015808D01*
X018855Y014058D02*
X018605Y013808D01*
X018605Y013308D01*
X018855Y013058D01*
X019355Y013058D01*
X019605Y013308D01*
X019605Y013808D01*
X019355Y014058D01*
X018855Y014058D01*
X018605Y013808D02*
X018605Y013308D01*
X018355Y013058D01*
X017855Y013058D01*
X017605Y013308D01*
X017605Y013808D01*
X017855Y014058D01*
X018355Y014058D01*
X018605Y013808D01*
X018855Y013058D02*
X018605Y012808D01*
X018605Y012308D01*
X018855Y012058D01*
X019355Y012058D01*
X019605Y012308D01*
X019605Y012808D01*
X019355Y013058D01*
X018855Y013058D01*
X018605Y012808D02*
X018605Y012308D01*
X018355Y012058D01*
X017855Y012058D01*
X017605Y012308D01*
X017605Y012808D01*
X017855Y013058D01*
X018355Y013058D01*
X018605Y012808D01*
X018855Y012058D02*
X018605Y011808D01*
X018605Y011308D01*
X018855Y011058D01*
X019355Y011058D01*
X019605Y011308D01*
X019605Y011808D01*
X019355Y012058D01*
X018855Y012058D01*
X018605Y011808D02*
X018605Y011308D01*
X018355Y011058D01*
X017855Y011058D01*
X017605Y011308D01*
X017605Y011808D01*
X017855Y012058D01*
X018355Y012058D01*
X018605Y011808D01*
X018855Y011058D02*
X019355Y011058D01*
X019605Y010808D01*
X019605Y010308D01*
X019355Y010058D01*
X018855Y010058D01*
X018605Y009808D01*
X018605Y009308D01*
X018855Y009058D01*
X019355Y009058D01*
X019605Y009308D01*
X019605Y009808D01*
X019355Y010058D01*
X018855Y010058D01*
X018605Y010308D01*
X018605Y010808D01*
X018855Y011058D01*
X018605Y010808D02*
X018605Y010308D01*
X018355Y010058D01*
X017855Y010058D01*
X017605Y009808D01*
X017605Y009308D01*
X017855Y009058D01*
X018355Y009058D01*
X018605Y009308D01*
X018605Y009808D01*
X018355Y010058D01*
X017855Y010058D01*
X017605Y010308D01*
X017605Y010808D01*
X017855Y011058D01*
X018355Y011058D01*
X018605Y010808D01*
X018855Y009058D02*
X018605Y008808D01*
X018605Y008308D01*
X018855Y008058D01*
X019355Y008058D01*
X019605Y008308D01*
X019605Y008808D01*
X019355Y009058D01*
X018855Y009058D01*
X018605Y008808D02*
X018605Y008308D01*
X018355Y008058D01*
X017855Y008058D01*
X017605Y008308D01*
X017605Y008808D01*
X017855Y009058D01*
X018355Y009058D01*
X018605Y008808D01*
X018855Y008058D02*
X018605Y007808D01*
X018605Y007308D01*
X018855Y007058D01*
X019355Y007058D01*
X019605Y007308D01*
X019605Y007808D01*
X019355Y008058D01*
X018855Y008058D01*
X018605Y007808D02*
X018605Y007308D01*
X018355Y007058D01*
X017855Y007058D01*
X017605Y007308D01*
X017605Y007808D01*
X017855Y008058D01*
X018355Y008058D01*
X018605Y007808D01*
X018855Y007058D02*
X018605Y006808D01*
X018605Y006308D01*
X018855Y006058D01*
X019355Y006058D01*
X019605Y006308D01*
X019605Y006808D01*
X019355Y007058D01*
X018855Y007058D01*
X018605Y006808D02*
X018605Y006308D01*
X018355Y006058D01*
X017855Y006058D01*
X017605Y006308D01*
X017605Y006808D01*
X017855Y007058D01*
X018355Y007058D01*
X018605Y006808D01*
X018855Y006058D02*
X018605Y005808D01*
X018605Y005308D01*
X018855Y005058D01*
X019355Y005058D01*
X019605Y005308D01*
X019605Y005808D01*
X019355Y006058D01*
X018855Y006058D01*
X018605Y005808D02*
X018605Y005308D01*
X018355Y005058D01*
X017855Y005058D01*
X017605Y005308D01*
X017605Y005808D01*
X017855Y006058D01*
X018355Y006058D01*
X018605Y005808D01*
M02*
