%
M48
M72
T01C0.0236
T02C0.0400
%
T01
X6855Y3558
X7355Y4808
X7855Y5558
X8355Y5808
X8855Y6308
X4605Y11558
X4105Y12058
X4605Y17308
X11855Y16058
X13855Y18308
X16355Y10558
X17355Y10308
T02
X5105Y1558
X6105Y1558
X6105Y2558
X5105Y2558
X7105Y2558
X7105Y1558
X8105Y1558
X8105Y2558
X9105Y2558
X9105Y1558
X10105Y1558
X10105Y2558
X11105Y2558
X11105Y1558
X12105Y1558
X12105Y2558
X13105Y2558
X13105Y1558
X14105Y1558
X14105Y2558
X15105Y2558
X18105Y5558
X18105Y6558
X19105Y6558
X19105Y5558
X19105Y7558
X19105Y8558
X19105Y9558
X19105Y10558
X19105Y11558
X19105Y12558
X19105Y13558
X19105Y14558
X19105Y15558
X18105Y15558
X18105Y14558
X18105Y13558
X18105Y12558
X18105Y11558
X18105Y10558
X18105Y9558
X18105Y8558
X18105Y7558
X18105Y16558
X15605Y19558
X15605Y20558
X14605Y20558
X13605Y20558
X13605Y19558
X14605Y19558
X12605Y19558
X11605Y19558
X11605Y20558
X12605Y20558
X10605Y20558
X9605Y20558
X9605Y19558
X10605Y19558
X8605Y19558
X7605Y19558
X7605Y20558
X8605Y20558
X6605Y20558
X5605Y20558
X5605Y19558
X6605Y19558
X4605Y19558
X2105Y16558
X2105Y15558
X2105Y14558
X2105Y13558
X2105Y12558
X2105Y11558
X2105Y10558
X2105Y9558
X2105Y8558
X2105Y7558
X2105Y6558
X2105Y5558
X1105Y6558
X1105Y7558
X1105Y8558
X1105Y9558
X1105Y10558
X1105Y11558
X1105Y12558
X1105Y13558
X1105Y14558
X1105Y15558
X1105Y16558
M30
