G75*
G70*
%OFA0B0*%
%FSLAX24Y24*%
%IPPOS*%
%LPD*%
%AMOC8*
5,1,8,0,0,1.08239X$1,22.5*
%
%ADD10C,0.0080*%
%ADD11C,0.0060*%
D10*
X010099Y008850D02*
X010611Y008850D01*
X010611Y010267D02*
X010099Y010267D01*
X009498Y011058D02*
X010711Y011058D01*
X011105Y011570D02*
X011105Y012558D01*
X010711Y013058D02*
X009498Y013058D01*
X009105Y012546D02*
X009105Y011570D01*
X009605Y012058D02*
X009607Y012102D01*
X009613Y012146D01*
X009623Y012189D01*
X009636Y012231D01*
X009653Y012272D01*
X009674Y012311D01*
X009698Y012348D01*
X009725Y012383D01*
X009755Y012415D01*
X009788Y012445D01*
X009824Y012471D01*
X009861Y012495D01*
X009901Y012514D01*
X009942Y012531D01*
X009985Y012543D01*
X010028Y012552D01*
X010072Y012557D01*
X010116Y012558D01*
X010160Y012555D01*
X010204Y012548D01*
X010247Y012537D01*
X010289Y012523D01*
X010329Y012505D01*
X010368Y012483D01*
X010404Y012459D01*
X010438Y012431D01*
X010470Y012400D01*
X010499Y012366D01*
X010525Y012330D01*
X010547Y012292D01*
X010566Y012252D01*
X010581Y012210D01*
X010593Y012168D01*
X010601Y012124D01*
X010605Y012080D01*
X010605Y012036D01*
X010601Y011992D01*
X010593Y011948D01*
X010581Y011906D01*
X010566Y011864D01*
X010547Y011824D01*
X010525Y011786D01*
X010499Y011750D01*
X010470Y011716D01*
X010438Y011685D01*
X010404Y011657D01*
X010368Y011633D01*
X010329Y011611D01*
X010289Y011593D01*
X010247Y011579D01*
X010204Y011568D01*
X010160Y011561D01*
X010116Y011558D01*
X010072Y011559D01*
X010028Y011564D01*
X009985Y011573D01*
X009942Y011585D01*
X009901Y011602D01*
X009861Y011621D01*
X009824Y011645D01*
X009788Y011671D01*
X009755Y011701D01*
X009725Y011733D01*
X009698Y011768D01*
X009674Y011805D01*
X009653Y011844D01*
X009636Y011885D01*
X009623Y011927D01*
X009613Y011970D01*
X009607Y012014D01*
X009605Y012058D01*
X012780Y004458D02*
X013430Y004458D01*
X013447Y004456D01*
X013464Y004452D01*
X013480Y004445D01*
X013494Y004435D01*
X013507Y004422D01*
X013517Y004408D01*
X013524Y004392D01*
X013528Y004375D01*
X013530Y004358D01*
X013530Y003758D02*
X013528Y003741D01*
X013524Y003724D01*
X013517Y003708D01*
X013507Y003694D01*
X013494Y003681D01*
X013480Y003671D01*
X013464Y003664D01*
X013447Y003660D01*
X013430Y003658D01*
X012780Y003658D01*
X012763Y003660D01*
X012746Y003664D01*
X012730Y003671D01*
X012716Y003681D01*
X012703Y003694D01*
X012693Y003708D01*
X012686Y003724D01*
X012682Y003741D01*
X012680Y003758D01*
X012680Y004358D02*
X012682Y004375D01*
X012686Y004392D01*
X012693Y004408D01*
X012703Y004422D01*
X012716Y004435D01*
X012730Y004445D01*
X012746Y004452D01*
X012763Y004456D01*
X012780Y004458D01*
D11*
X016805Y011958D02*
X017405Y011958D01*
X017422Y011960D01*
X017439Y011964D01*
X017455Y011971D01*
X017469Y011981D01*
X017482Y011994D01*
X017492Y012008D01*
X017499Y012024D01*
X017503Y012041D01*
X017505Y012058D01*
X017505Y013058D01*
X017503Y013075D01*
X017499Y013092D01*
X017492Y013108D01*
X017482Y013122D01*
X017469Y013135D01*
X017455Y013145D01*
X017439Y013152D01*
X017422Y013156D01*
X017405Y013158D01*
X016805Y013158D01*
X016788Y013156D01*
X016771Y013152D01*
X016755Y013145D01*
X016741Y013135D01*
X016728Y013122D01*
X016718Y013108D01*
X016711Y013092D01*
X016707Y013075D01*
X016705Y013058D01*
X016705Y012058D01*
X016707Y012041D01*
X016711Y012024D01*
X016718Y012008D01*
X016728Y011994D01*
X016741Y011981D01*
X016755Y011971D01*
X016771Y011964D01*
X016788Y011960D01*
X016805Y011958D01*
M02*
